<svg id="svg" version="1.1" xmlns="http://www.w3.org/2000/svg" xmlns:xlink="http://www.w3.org/1999/xlink" width="400" height="400" viewBox="0, 0, 400,400"><g id="svgg"><path id="path0" d="M105.000 33.812 C 101.324 34.753,97.275 36.057,95.947 36.728 L 94.994 37.210 95.759 38.255 C 102.082 46.898,103.416 58.354,99.066 66.640 C 95.966 72.544,90.916 76.808,79.674 83.011 C 68.166 89.361,64.384 91.890,60.153 96.065 C 55.757 100.401,54.086 103.196,50.172 112.758 C 42.606 131.242,37.281 137.293,28.600 137.269 C 26.059 137.263,26.018 137.255,22.317 136.060 C 21.844 135.907,22.216 149.255,22.699 149.763 C 23.346 150.442,30.715 150.618,33.700 150.026 C 45.847 147.616,53.909 138.608,62.094 118.300 C 65.096 110.853,65.621 109.838,67.980 106.919 C 69.479 105.065,71.760 103.119,74.901 101.017 C 77.365 99.367,78.740 98.565,88.300 93.201 C 98.717 87.356,104.490 82.443,109.002 75.584 C 116.271 64.533,116.719 50.110,110.204 36.900 C 108.032 32.496,108.669 32.873,105.000 33.812 M187.134 34.250 C 177.368 50.232,179.695 70.027,192.829 82.707 C 197.446 87.164,200.750 89.393,212.080 95.691 C 226.871 103.914,228.828 105.913,233.597 117.669 C 242.218 138.922,249.772 147.508,262.050 150.010 C 271.151 151.865,278.805 148.353,284.983 139.489 C 289.309 133.282,290.001 132.606,292.030 132.594 L 293.100 132.588 291.300 131.837 C 289.043 130.896,287.067 129.624,285.311 127.980 L 283.946 126.704 283.623 127.199 C 278.751 134.660,270.098 138.819,263.605 136.821 C 256.774 134.719,252.037 128.353,245.804 112.900 C 239.754 97.900,235.979 93.992,217.700 83.802 C 206.409 77.508,202.370 74.506,198.776 69.736 C 192.665 61.627,192.701 50.433,198.869 40.214 C 199.495 39.176,199.938 38.261,199.854 38.179 C 199.514 37.849,188.075 33.800,187.485 33.800 C 187.443 33.800,187.285 34.002,187.134 34.250 M75.487 163.650 L 74.900 164.300 75.550 163.713 C 76.156 163.165,76.292 163.000,76.137 163.000 C 76.103 163.000,75.810 163.293,75.487 163.650 M194.057 177.300 C 194.059 177.850,194.098 178.051,194.144 177.747 C 194.189 177.443,194.188 176.993,194.141 176.747 C 194.093 176.501,194.056 176.750,194.057 177.300 M96.000 191.100 C 95.514 191.595,95.162 192.000,95.217 192.000 C 95.272 192.000,95.714 191.595,96.200 191.100 C 96.686 190.605,97.038 190.200,96.983 190.200 C 96.928 190.200,96.486 190.605,96.000 191.100 M120.552 248.341 C 120.801 248.389,121.161 248.387,121.352 248.337 C 121.544 248.287,121.340 248.248,120.900 248.250 C 120.460 248.253,120.304 248.294,120.552 248.341 M117.400 257.063 C 117.400 257.097,117.692 257.390,118.050 257.713 L 118.700 258.300 118.113 257.650 C 117.565 257.044,117.400 256.908,117.400 257.063 M161.352 261.741 C 161.601 261.789,161.961 261.787,162.152 261.737 C 162.344 261.687,162.140 261.648,161.700 261.650 C 161.260 261.653,161.104 261.694,161.352 261.741 M236.695 269.050 L 235.100 270.700 236.750 269.105 C 238.282 267.623,238.491 267.400,238.345 267.400 C 238.315 267.400,237.573 268.143,236.695 269.050 M159.250 288.338 C 159.442 288.388,159.758 288.388,159.950 288.338 C 160.143 288.288,159.985 288.246,159.600 288.246 C 159.215 288.246,159.058 288.288,159.250 288.338 M144.450 288.543 C 144.753 288.589,145.248 288.589,145.550 288.543 C 145.853 288.497,145.605 288.460,145.000 288.460 C 144.395 288.460,144.148 288.497,144.450 288.543 M153.355 288.547 C 153.826 288.589,154.546 288.588,154.955 288.545 C 155.365 288.502,154.980 288.468,154.100 288.469 C 153.220 288.469,152.885 288.504,153.355 288.547 M158.111 294.019 C 148.280 296.434,143.722 306.997,148.829 315.533 C 154.191 324.496,168.018 325.249,174.524 316.934 C 183.184 305.867,172.216 290.555,158.111 294.019 M163.791 297.794 C 165.488 299.002,165.325 301.489,163.479 302.547 C 161.415 303.730,158.800 302.362,158.800 300.100 C 158.800 297.731,161.774 296.357,163.791 297.794 " stroke="none" fill="#83665f" fill-rule="evenodd"></path><path id="path1" d="M83.171 159.502 C 73.648 161.399,67.832 172.999,71.141 183.495 C 75.708 197.979,92.845 199.617,99.525 186.209 C 106.065 173.079,96.166 156.914,83.171 159.502 M207.100 159.483 C 192.727 162.812,189.402 184.552,201.978 192.964 C 211.718 199.478,223.893 192.450,225.405 179.440 C 226.765 167.745,217.069 157.174,207.100 159.483 M142.800 205.140 C 130.508 206.470,122.460 213.134,120.988 223.202 C 119.511 233.301,128.779 241.754,141.374 241.796 L 142.448 241.800 142.364 243.650 C 142.043 250.787,133.844 253.387,124.600 249.283 C 115.912 245.426,112.460 255.002,120.852 259.678 C 126.733 262.955,136.648 262.638,145.752 258.882 C 147.917 257.989,148.611 258.004,150.806 258.992 C 160.402 263.313,172.234 262.269,177.935 256.598 C 181.227 253.324,179.492 248.096,175.116 248.102 C 173.769 248.104,173.572 248.169,171.066 249.435 C 165.922 252.033,161.244 252.107,156.565 249.663 C 153.741 248.188,153.246 247.345,153.060 243.688 L 152.948 241.475 155.224 241.223 C 166.418 239.984,172.005 236.112,174.012 228.200 C 176.422 218.703,171.331 211.106,159.900 207.146 C 154.871 205.403,147.911 204.587,142.800 205.140 M160.404 297.539 C 157.627 298.979,158.732 303.008,161.900 302.996 C 164.771 302.986,166.069 299.415,163.791 297.794 C 162.911 297.167,161.347 297.050,160.404 297.539 " stroke="none" fill="#2c2c2c" fill-rule="evenodd"></path><path id="path2" d="M60.300 23.325 C 32.329 25.110,12.388 41.775,4.209 70.200 C -4.419 100.183,8.544 136.453,28.139 137.152 C 37.116 137.472,42.443 131.516,50.190 112.500 C 56.259 97.604,60.033 93.769,78.837 83.388 C 91.424 76.438,96.486 72.064,99.506 65.528 C 103.128 57.689,101.891 47.523,96.303 39.189 C 95.680 38.260,95.154 37.422,95.135 37.327 C 95.116 37.232,94.785 36.784,94.400 36.332 C 87.346 28.047,78.730 24.262,65.200 23.504 C 64.045 23.439,62.695 23.358,62.200 23.324 C 61.705 23.289,60.850 23.290,60.300 23.325 M229.300 23.514 C 219.278 24.325,212.785 26.494,207.000 30.962 C 204.529 32.871,200.213 37.413,200.196 38.122 C 200.193 38.220,199.780 38.930,199.278 39.700 C 193.822 48.063,192.780 58.341,196.608 66.052 C 199.533 71.944,204.394 76.251,214.500 81.905 C 226.920 88.853,229.940 90.786,234.300 94.574 C 239.294 98.913,241.808 102.865,245.767 112.600 C 253.252 131.005,258.675 137.205,267.282 137.199 C 284.020 137.186,297.397 108.716,293.806 80.750 C 289.177 44.698,262.292 20.842,229.300 23.514 M140.143 27.798 C 133.549 28.233,125.607 29.285,118.959 30.604 C 114.343 31.521,108.761 32.794,108.558 32.977 C 108.479 33.047,109.157 34.589,110.062 36.402 C 116.800 49.889,116.411 64.522,109.020 75.700 C 104.181 83.017,98.246 87.858,85.600 94.800 C 69.848 103.447,67.082 106.071,63.038 116.200 C 55.689 134.611,49.844 142.926,40.974 147.590 C 36.025 150.193,29.206 151.225,24.023 150.156 L 22.545 149.851 22.658 155.676 C 23.137 180.389,29.260 206.342,39.390 226.600 C 49.363 246.543,62.045 260.360,80.000 270.844 L 82.900 272.538 82.842 279.919 C 82.571 314.423,82.168 332.521,81.505 339.948 C 79.402 363.485,81.496 371.371,91.100 376.095 C 109.197 384.997,135.497 382.580,144.727 371.168 C 149.888 364.785,151.453 358.756,151.804 343.900 C 151.910 339.390,152.080 333.112,152.182 329.948 C 152.284 326.785,152.315 323.147,152.252 321.864 L 152.137 319.531 150.591 317.866 C 145.442 312.322,145.241 304.222,150.118 298.833 L 151.215 297.621 150.557 297.521 C 150.196 297.467,148.820 297.324,147.500 297.205 C 130.990 295.713,111.440 289.068,100.559 281.251 C 99.259 280.318,99.326 280.312,102.105 281.122 C 131.617 289.721,161.697 290.782,186.128 284.087 C 198.626 280.661,210.484 274.730,223.896 265.196 C 242.226 252.165,255.390 232.972,264.053 206.645 C 264.715 204.634,265.293 203.026,265.337 203.071 C 265.587 203.321,264.488 211.523,263.589 216.117 C 259.364 237.701,249.522 256.816,235.816 270.058 C 219.419 285.900,199.155 294.945,175.369 297.042 L 172.639 297.282 173.927 298.673 C 175.609 300.491,176.898 303.041,177.354 305.455 C 177.676 307.160,177.696 307.200,178.250 307.200 C 181.946 307.200,186.062 309.551,187.558 312.518 C 190.073 317.505,191.485 334.527,190.319 345.800 C 190.154 347.395,189.790 350.924,189.510 353.643 C 188.436 364.061,189.078 367.369,192.971 371.461 C 197.844 376.582,204.663 378.500,218.000 378.500 C 236.290 378.500,250.607 374.603,256.984 367.889 C 260.609 364.073,261.336 359.755,260.131 349.200 C 259.848 346.725,259.521 342.855,259.403 340.600 C 258.937 331.682,258.112 320.681,257.311 312.700 C 256.163 301.259,256.540 291.599,258.280 287.900 C 260.082 284.067,262.509 283.086,270.000 283.161 C 272.585 283.187,275.795 283.101,277.134 282.971 C 283.227 282.376,284.695 285.552,285.195 300.400 C 285.553 311.055,285.884 313.571,287.308 316.462 C 292.301 326.596,310.040 330.417,329.753 325.604 C 344.527 321.996,348.633 316.448,348.408 300.400 C 348.249 289.111,348.298 282.732,348.590 276.800 C 350.076 246.572,346.974 211.896,340.885 190.660 C 340.040 187.715,339.945 187.949,341.800 188.415 C 347.087 189.744,356.820 190.183,362.159 189.333 C 382.062 186.165,395.052 173.291,398.113 153.700 C 399.833 142.692,396.056 136.691,388.594 138.578 C 387.399 138.880,385.280 139.796,381.400 141.688 C 356.554 153.805,342.032 156.758,324.422 153.277 L 321.943 152.787 320.640 151.344 C 312.659 142.501,298.545 133.073,292.729 132.698 C 290.139 132.531,289.598 132.996,285.484 138.919 C 281.666 144.415,279.787 146.246,276.092 148.070 C 263.754 154.159,250.531 148.801,241.278 133.962 C 238.880 130.116,236.695 125.466,232.618 115.532 C 228.682 105.943,226.294 103.707,210.700 95.002 C 201.517 89.876,198.418 87.830,194.219 84.117 C 180.476 71.967,177.220 54.143,185.618 37.028 C 186.501 35.229,187.196 33.733,187.162 33.703 C 186.685 33.291,174.520 30.515,169.300 29.627 C 159.506 27.962,148.318 27.260,140.143 27.798 M89.200 159.529 C 96.400 161.120,101.593 168.629,101.598 177.458 C 101.609 193.145,85.388 201.352,75.289 190.769 C 63.389 178.301,73.312 156.016,89.200 159.529 M213.100 159.518 C 223.468 161.957,228.804 175.687,223.509 186.300 C 217.372 198.600,202.204 198.600,196.096 186.300 C 189.392 172.800,199.810 156.392,213.100 159.518 M150.429 205.002 C 165.990 206.519,175.928 214.963,174.607 225.544 C 173.456 234.759,167.924 239.643,157.000 241.088 C 155.625 241.270,154.208 241.464,153.850 241.519 L 153.200 241.618 153.200 243.573 C 153.200 247.188,153.863 248.246,157.100 249.799 C 161.686 251.999,166.205 251.823,171.237 249.248 C 173.573 248.052,173.874 247.950,175.046 247.950 C 179.579 247.950,181.415 253.251,178.034 256.580 C 172.415 262.115,160.714 263.449,151.900 259.560 C 148.627 258.115,148.411 258.070,147.066 258.548 C 146.425 258.775,144.955 259.293,143.800 259.697 C 133.371 263.351,123.608 262.744,118.467 258.122 C 112.695 252.932,117.309 245.897,124.400 249.076 C 128.462 250.896,131.178 251.427,134.306 251.011 C 139.427 250.329,142.000 247.959,142.335 243.612 L 142.454 242.071 140.177 241.825 C 127.709 240.476,120.907 234.680,120.903 225.400 C 120.896 212.135,133.596 203.361,150.429 205.002 " stroke="none" fill="#f3932c" fill-rule="evenodd"></path><path id="path3" d="M263.924 207.350 C 253.166 239.863,235.975 260.552,207.000 275.857 C 178.559 290.880,141.396 292.696,101.300 281.022 L 99.900 280.615 100.449 281.064 C 101.546 281.962,106.370 284.742,109.893 286.507 C 120.928 292.036,133.756 295.660,147.376 297.097 C 151.389 297.521,151.344 297.525,152.583 296.594 C 157.867 292.624,166.367 292.592,171.517 296.524 L 172.464 297.246 175.582 296.917 C 200.637 294.270,219.398 285.832,235.873 269.800 C 251.887 254.217,262.756 230.216,265.104 205.250 C 265.291 203.262,265.257 203.324,263.924 207.350 " stroke="none" fill="#056ca3" fill-rule="evenodd"></path><path id="path4" d="M114.646 52.600 C 114.646 52.985,114.688 53.142,114.738 52.950 C 114.788 52.758,114.788 52.442,114.738 52.250 C 114.688 52.058,114.646 52.215,114.646 52.600 M194.246 54.000 C 194.246 54.385,194.288 54.542,194.338 54.350 C 194.388 54.158,194.388 53.843,194.338 53.650 C 194.288 53.458,194.246 53.615,194.246 54.000 M181.076 56.000 C 181.076 57.265,181.108 57.783,181.148 57.150 C 181.187 56.517,181.187 55.483,181.148 54.850 C 181.108 54.218,181.076 54.735,181.076 56.000 M194.246 57.800 C 194.246 58.185,194.288 58.343,194.338 58.150 C 194.388 57.958,194.388 57.642,194.338 57.450 C 194.288 57.258,194.246 57.415,194.246 57.800 M94.095 73.050 L 92.700 74.500 94.150 73.105 C 95.497 71.810,95.691 71.600,95.545 71.600 C 95.514 71.600,94.862 72.252,94.095 73.050 M192.192 82.250 C 192.682 82.773,193.110 83.200,193.142 83.200 C 193.292 83.200,193.133 83.020,192.250 82.192 L 191.300 81.300 192.192 82.250 M61.287 94.850 L 60.700 95.500 61.350 94.913 C 61.956 94.365,62.092 94.200,61.937 94.200 C 61.903 94.200,61.610 94.493,61.287 94.850 M235.700 96.000 C 236.130 96.440,236.526 96.800,236.581 96.800 C 236.636 96.800,236.330 96.440,235.900 96.000 C 235.470 95.560,235.074 95.200,235.019 95.200 C 234.964 95.200,235.270 95.560,235.700 96.000 M69.292 105.450 L 68.300 106.500 69.350 105.508 C 69.927 104.962,70.400 104.489,70.400 104.458 C 70.400 104.308,70.215 104.474,69.292 105.450 M279.894 131.450 L 278.700 132.700 279.950 131.506 C 281.111 130.397,281.292 130.200,281.144 130.200 C 281.113 130.200,280.550 130.763,279.894 131.450 M27.746 137.344 C 28.101 137.389,28.731 137.389,29.146 137.346 C 29.560 137.303,29.270 137.267,28.500 137.266 C 27.730 137.265,27.390 137.300,27.746 137.344 M266.754 137.345 C 267.113 137.389,267.653 137.389,267.954 137.343 C 268.254 137.297,267.960 137.261,267.300 137.262 C 266.640 137.263,266.394 137.300,266.754 137.345 M48.094 142.250 L 46.900 143.500 48.150 142.306 C 48.838 141.650,49.400 141.087,49.400 141.056 C 49.400 140.908,49.203 141.089,48.094 142.250 M280.892 144.650 L 279.900 145.700 280.950 144.708 C 281.528 144.162,282.000 143.689,282.000 143.658 C 282.000 143.508,281.815 143.674,280.892 144.650 M27.150 150.541 C 27.398 150.589,27.802 150.589,28.050 150.541 C 28.298 150.493,28.095 150.454,27.600 150.454 C 27.105 150.454,26.902 150.493,27.150 150.541 M29.653 150.544 C 29.957 150.589,30.407 150.588,30.653 150.541 C 30.899 150.493,30.650 150.456,30.100 150.457 C 29.550 150.459,29.349 150.498,29.653 150.544 M265.253 150.544 C 265.557 150.589,266.007 150.588,266.253 150.541 C 266.499 150.493,266.250 150.456,265.700 150.457 C 265.150 150.459,264.949 150.498,265.253 150.544 M70.066 177.300 C 70.067 178.070,70.103 178.360,70.146 177.946 C 70.189 177.531,70.189 176.901,70.144 176.546 C 70.100 176.190,70.065 176.530,70.066 177.300 M145.150 204.941 C 145.398 204.989,145.803 204.989,146.050 204.941 C 146.297 204.893,146.095 204.854,145.600 204.854 C 145.105 204.854,144.903 204.893,145.150 204.941 M147.853 204.944 C 148.157 204.989,148.607 204.988,148.853 204.941 C 149.099 204.893,148.850 204.856,148.300 204.857 C 147.750 204.859,147.549 204.898,147.853 204.944 M126.287 212.050 L 125.700 212.700 126.350 212.113 C 126.708 211.790,127.000 211.497,127.000 211.463 C 127.000 211.308,126.835 211.444,126.287 212.050 M174.664 223.600 C 174.664 224.315,174.700 224.607,174.745 224.250 C 174.789 223.893,174.789 223.308,174.745 222.950 C 174.700 222.593,174.664 222.885,174.664 223.600 M153.083 241.672 C 153.025 241.822,153.011 242.475,153.051 243.122 L 153.124 244.300 153.162 242.965 C 153.193 241.881,153.266 241.612,153.550 241.538 C 153.878 241.452,153.878 241.445,153.544 241.423 C 153.348 241.410,153.140 241.523,153.083 241.672 M237.687 253.250 L 237.100 253.900 237.750 253.313 C 238.356 252.765,238.492 252.600,238.337 252.600 C 238.303 252.600,238.010 252.893,237.687 253.250 M233.687 257.250 L 233.100 257.900 233.750 257.313 C 234.356 256.765,234.492 256.600,234.337 256.600 C 234.303 256.600,234.010 256.893,233.687 257.250 M130.350 262.145 C 130.708 262.189,131.292 262.189,131.650 262.145 C 132.008 262.100,131.715 262.064,131.000 262.064 C 130.285 262.064,129.993 262.100,130.350 262.145 M147.660 288.549 C 148.628 288.586,150.158 288.586,151.060 288.549 C 151.962 288.512,151.170 288.482,149.300 288.482 C 147.430 288.482,146.692 288.512,147.660 288.549 " stroke="none" fill="#b48c4c" fill-rule="evenodd"></path></g></svg>