<?xml version="1.0" standalone="no"?>
<!DOCTYPE svg PUBLIC "-//W3C//DTD SVG 20010904//EN"
 "http://www.w3.org/TR/2001/REC-SVG-20010904/DTD/svg10.dtd">
<svg version="1.0" xmlns="http://www.w3.org/2000/svg"
 width="640.000000pt" height="1280.000000pt" viewBox="0 0 640.000000 1280.000000"
 preserveAspectRatio="xMidYMid meet">
<metadata>
Created by potrace 1.15, written by Peter Selinger 2001-2017
</metadata>
<g transform="translate(0.000000,1280.000000) scale(0.100000,-0.100000)"
fill="#8B4513" stroke="none">
<path d="M2945 12794 c-387 -29 -618 -64 -915 -139 -624 -157 -1115 -442
-1363 -790 -60 -85 -130 -228 -154 -316 -25 -90 -25 -318 1 -409 24 -89 93
-231 153 -315 245 -343 715 -619 1329 -781 146 -38 412 -94 449 -94 l25 0 0
-3862 c0 -3418 2 -3872 15 -3943 63 -328 340 -1208 540 -1710 107 -270 197
-435 236 -435 52 0 137 172 258 521 126 367 296 956 390 1354 11 50 31 131 43
180 l22 90 6 3905 c5 3895 5 3905 25 3908 147 22 462 98 620 150 327 108 619
260 840 437 164 132 283 277 361 440 65 138 78 197 79 360 0 163 -13 222 -79
359 -77 161 -183 293 -341 425 -407 339 -1030 563 -1795 646 -136 15 -633 28
-745 19z"/>
</g>
</svg>
